<svg width="49" height="49" viewBox="0 0 49 49" fill="none" xmlns="http://www.w3.org/2000/svg">
<rect width="49" height="49" rx="10" fill="url(#paint0_linear_542_868)"/>
<mask id="mask0_542_868" style="mask-type:alpha" maskUnits="userSpaceOnUse" x="8" y="8" width="33" height="33">
<rect x="8.30508" y="8.30508" width="32.547" height="32.547" fill="#D9D9D9"/>
</mask>
<g mask="url(#mask0_542_868)">
<path d="M14.7122 36.5459C13.9663 36.5459 13.3278 36.2788 12.7966 35.7447C12.2655 35.2106 11.9999 34.5686 11.9999 33.8186V14.7273C11.9999 13.9773 12.2655 13.3353 12.7966 12.8012C13.3278 12.2671 13.9663 12 14.7122 12H33.6979C34.4438 12 35.0823 12.2671 35.6134 12.8012C36.1446 13.3353 36.4102 13.9773 36.4102 14.7273V18.1365H33.6979V14.7273H14.7122V33.8186H33.6979V30.4094H36.4102V33.8186C36.4102 34.5686 36.1446 35.2106 35.6134 35.7447C35.0823 36.2788 34.4438 36.5459 33.6979 36.5459H14.7122ZM25.5612 31.0912C24.8153 31.0912 24.1768 30.8242 23.6456 30.2901C23.1145 29.756 22.8489 29.1139 22.8489 28.3639V20.182C22.8489 19.4319 23.1145 18.7899 23.6456 18.2558C24.1768 17.7217 24.8153 17.4546 25.5612 17.4546H35.054C35.7999 17.4546 36.4384 17.7217 36.9696 18.2558C37.5007 18.7899 37.7663 19.4319 37.7663 20.182V28.3639C37.7663 29.1139 37.5007 29.756 36.9696 30.2901C36.4384 30.8242 35.7999 31.0912 35.054 31.0912H25.5612ZM35.054 28.3639V20.182H25.5612V28.3639H35.054ZM29.6295 26.3184C30.1946 26.3184 30.6749 26.1196 31.0704 25.7218C31.466 25.3241 31.6637 24.8411 31.6637 24.2729C31.6637 23.7047 31.466 23.2218 31.0704 22.824C30.6749 22.4263 30.1946 22.2274 29.6295 22.2274C29.0645 22.2274 28.5842 22.4263 28.1887 22.824C27.7931 23.2218 27.5954 23.7047 27.5954 24.2729C27.5954 24.8411 27.7931 25.3241 28.1887 25.7218C28.5842 26.1196 29.0645 26.3184 29.6295 26.3184Z" fill="#A1E2FE"/>
</g>
<defs>
<linearGradient id="paint0_linear_542_868" x1="40.5" y1="43.5" x2="24" y2="4.5" gradientUnits="userSpaceOnUse">
<stop stop-color="#5706AC"/>
<stop offset="1" stop-color="#8440CC"/>
</linearGradient>
</defs>
</svg>
